<?xml version="1.0" encoding="UTF-8"?>
<svg width="600" height="400" viewBox="0 0 600 400" xmlns="http://www.w3.org/2000/svg">
  <defs>
    <linearGradient id="shieldGradient" x1="0%" y1="0%" x2="100%" y2="100%">
      <stop offset="0%" stop-color="#4F46E5" />
      <stop offset="100%" stop-color="#7C3AED" />
    </linearGradient>
    <linearGradient id="bgGradient" x1="0%" y1="0%" x2="100%" y2="100%">
      <stop offset="0%" stop-color="#F9FAFB" />
      <stop offset="100%" stop-color="#E5E7EB" />
    </linearGradient>
    <filter id="shadow" x="-20%" y="-20%" width="140%" height="140%">
      <feGaussianBlur in="SourceAlpha" stdDeviation="10" />
      <feOffset dx="0" dy="10" result="offsetblur" />
      <feComponentTransfer>
        <feFuncA type="linear" slope="0.2" />
      </feComponentTransfer>
      <feMerge>
        <feMergeNode />
        <feMergeNode in="SourceGraphic" />
      </feMerge>
    </filter>
    <clipPath id="circleClip">
      <circle cx="300" cy="200" r="150" />
    </clipPath>
  </defs>
  
  <!-- Background Circle -->
  <circle cx="300" cy="200" r="160" fill="url(#bgGradient)" filter="url(#shadow)" />
  
  <!-- Shield Base -->
  <g transform="translate(300, 200) scale(0.8)" filter="url(#shadow)">
    <path d="M0,-120 C-80,-120 -120,-80 -120,0 C-120,80 -70,130 0,180 C70,130 120,80 120,0 C120,-80 80,-120 0,-120" fill="url(#shieldGradient)" />
  </g>
  
  <!-- Lock -->
  <g transform="translate(300, 220) scale(0.5)">
    <rect x="-40" y="-10" width="80" height="70" rx="10" ry="10" fill="#ffffff" />
    <rect x="-30" y="-40" width="60" height="40" rx="10" ry="10" fill="#ffffff" stroke="#ffffff" stroke-width="8" />
    <circle cx="0" cy="25" r="12" fill="#4F46E5" />
    <rect x="-3" y="15" width="6" height="20" rx="2" ry="2" fill="#ffffff" />
  </g>
  
  <!-- Animated Elements -->
  <g clip-path="url(#circleClip)">
    <!-- Digital Lines -->
    <g id="digitalLines" opacity="0.2">
      <path d="M100,100 L500,100" stroke="#4F46E5" stroke-width="2" stroke-dasharray="5,5">
        <animate attributeName="stroke-dashoffset" from="0" to="100" dur="20s" repeatCount="indefinite" />
      </path>
      <path d="M100,130 L450,130" stroke="#7C3AED" stroke-width="2" stroke-dasharray="10,10">
        <animate attributeName="stroke-dashoffset" from="0" to="200" dur="15s" repeatCount="indefinite" />
      </path>
      <path d="M150,160 L500,160" stroke="#4F46E5" stroke-width="2" stroke-dasharray="15,10">
        <animate attributeName="stroke-dashoffset" from="0" to="250" dur="25s" repeatCount="indefinite" />
      </path>
      <path d="M100,190 L400,190" stroke="#7C3AED" stroke-width="2" stroke-dasharray="5,15">
        <animate attributeName="stroke-dashoffset" from="0" to="100" dur="10s" repeatCount="indefinite" />
      </path>
      <path d="M200,220 L500,220" stroke="#4F46E5" stroke-width="2" stroke-dasharray="20,10">
        <animate attributeName="stroke-dashoffset" from="0" to="300" dur="30s" repeatCount="indefinite" />
      </path>
      <path d="M100,250 L450,250" stroke="#7C3AED" stroke-width="2" stroke-dasharray="8,8">
        <animate attributeName="stroke-dashoffset" from="0" to="160" dur="18s" repeatCount="indefinite" />
      </path>
      <path d="M150,280 L500,280" stroke="#4F46E5" stroke-width="2" stroke-dasharray="12,12">
        <animate attributeName="stroke-dashoffset" from="0" to="240" dur="22s" repeatCount="indefinite" />
      </path>
    </g>
    
    <!-- Animated Circles -->
    <g>
      <circle cx="150" cy="130" r="5" fill="#7C3AED">
        <animate attributeName="opacity" values="0;1;0" dur="4s" repeatCount="indefinite" />
        <animate attributeName="r" values="3;6;3" dur="4s" repeatCount="indefinite" />
      </circle>
      <circle cx="250" cy="200" r="4" fill="#4F46E5">
        <animate attributeName="opacity" values="0;1;0" dur="6s" repeatCount="indefinite" begin="1s" />
        <animate attributeName="r" values="2;5;2" dur="6s" repeatCount="indefinite" begin="1s" />
      </circle>
      <circle cx="350" cy="150" r="6" fill="#7C3AED">
        <animate attributeName="opacity" values="0;1;0" dur="5s" repeatCount="indefinite" begin="2s" />
        <animate attributeName="r" values="4;7;4" dur="5s" repeatCount="indefinite" begin="2s" />
      </circle>
      <circle cx="400" cy="250" r="5" fill="#4F46E5">
        <animate attributeName="opacity" values="0;1;0" dur="7s" repeatCount="indefinite" begin="3s" />
        <animate attributeName="r" values="3;6;3" dur="7s" repeatCount="indefinite" begin="3s" />
      </circle>
    </g>
  </g>
  
  <!-- Shield Pulse Animation -->
  <g transform="translate(300, 200) scale(0.85)" opacity="0.2">
    <path d="M0,-120 C-80,-120 -120,-80 -120,0 C-120,80 -70,130 0,180 C70,130 120,80 120,0 C120,-80 80,-120 0,-120" fill="url(#shieldGradient)">
      <animate attributeName="opacity" values="0.1;0.3;0.1" dur="3s" repeatCount="indefinite" />
      <animate attributeName="transform" from="scale(0.85)" to="scale(0.95)" dur="3s" repeatCount="indefinite" />
    </path>
  </g>
  
  <!-- Binary numbers in background (subtle) -->
  <g opacity="0.07" transform="translate(0, 0)">
    <text x="150" y="120" font-family="monospace" font-size="10">10110101 01101001</text>
    <text x="220" y="140" font-family="monospace" font-size="10">01010111 10101000</text>
    <text x="170" y="160" font-family="monospace" font-size="10">11101010 01011101</text>
    <text x="250" y="180" font-family="monospace" font-size="10">00110101 11010010</text>
    <text x="200" y="200" font-family="monospace" font-size="10">10101010 10101010</text>
    <text x="230" y="220" font-family="monospace" font-size="10">01101001 10110100</text>
    <text x="180" y="240" font-family="monospace" font-size="10">11010010 01101001</text>
    <text x="210" y="260" font-family="monospace" font-size="10">01010101 01010101</text>
    <text x="170" y="280" font-family="monospace" font-size="10">11001100 11001100</text>
  </g>
</svg>