<?xml version="1.0" encoding="UTF-8"?>
<svg width="600" height="400" viewBox="0 0 600 400" fill="none" xmlns="http://www.w3.org/2000/svg">
  <!-- Background Elements -->
  <circle cx="300" cy="200" r="150" fill="#EEF2FF" fill-opacity="0.5"/>
  <circle cx="400" cy="100" r="50" fill="#C7D2FE" fill-opacity="0.5"/>
  <circle cx="150" cy="300" r="80" fill="#DDD6FE" fill-opacity="0.5"/>
  
  <!-- Computer Screen -->
  <rect x="150" y="100" width="300" height="200" rx="10" fill="#1F2937"/>
  <rect x="160" y="110" width="280" height="170" rx="5" fill="#F9FAFB"/>
  
  <!-- Camera Lens / Vision Element -->
  <circle cx="300" cy="180" r="50" fill="#EEF2FF" stroke="#4F46E5" stroke-width="3"/>
  <circle cx="300" cy="180" r="40" fill="#FFFFFF" stroke="#4F46E5" stroke-width="2"/>
  <circle cx="300" cy="180" r="30" fill="#EEF2FF" stroke="#4F46E5" stroke-width="2"/>
  <circle cx="300" cy="180" r="20" fill="#FFFFFF" stroke="#4F46E5" stroke-width="2"/>
  <circle cx="300" cy="180" r="10" fill="#4F46E5"/>
  
  <!-- Detection Elements -->
  <rect x="220" y="140" width="40" height="40" rx="5" stroke="#10B981" stroke-width="2" stroke-dasharray="4 2"/>
  <rect x="340" y="140" width="40" height="40" rx="5" stroke="#10B981" stroke-width="2" stroke-dasharray="4 2"/>
  <rect x="250" y="210" width="100" height="30" rx="5" stroke="#F97316" stroke-width="2" stroke-dasharray="4 2"/>
  
  <!-- Check Marks -->
  <circle cx="240" cy="160" r="10" fill="#10B981"/>
  <path d="M235 160L238 163L245 156" stroke="white" stroke-width="2" stroke-linecap="round" stroke-linejoin="round"/>
  
  <circle cx="360" cy="160" r="10" fill="#10B981"/>
  <path d="M355 160L358 163L365 156" stroke="white" stroke-width="2" stroke-linecap="round" stroke-linejoin="round"/>
  
  <!-- Data Visualization Elements -->
  <rect x="180" y="240" width="20" height="20" rx="3" fill="#4F46E5" fill-opacity="0.8"/>
  <rect x="210" y="240" width="20" height="20" rx="3" fill="#4F46E5" fill-opacity="0.6"/>
  <rect x="240" y="240" width="20" height="20" rx="3" fill="#4F46E5" fill-opacity="0.4"/>
  <rect x="270" y="240" width="20" height="20" rx="3" fill="#10B981" fill-opacity="0.8"/>
  <rect x="300" y="240" width="20" height="20" rx="3" fill="#10B981" fill-opacity="0.6"/>
  <rect x="330" y="240" width="20" height="20" rx="3" fill="#10B981" fill-opacity="0.4"/>
  <rect x="360" y="240" width="20" height="20" rx="3" fill="#F97316" fill-opacity="0.8"/>
  <rect x="390" y="240" width="20" height="20" rx="3" fill="#F97316" fill-opacity="0.6"/>
  <rect x="420" y="240" width="20" height="20" rx="3" fill="#F97316" fill-opacity="0.4"/>
  
  <!-- Connection Lines -->
  <line x1="240" y1="190" x2="240" y2="230" stroke="#4F46E5" stroke-width="1.5" stroke-dasharray="3 2"/>
  <line x1="300" y1="190" x2="300" y2="230" stroke="#10B981" stroke-width="1.5" stroke-dasharray="3 2"/>
  <line x1="360" y1="190" x2="360" y2="230" stroke="#F97316" stroke-width="1.5" stroke-dasharray="3 2"/>
</svg>