<?xml version="1.0" encoding="UTF-8"?>
<svg width="60" height="60" viewBox="0 0 60 60" fill="none" xmlns="http://www.w3.org/2000/svg">
  <rect width="60" height="60" rx="12" fill="#EEF2FF"/>
  
  <!-- Graph Frame -->
  <rect x="10" y="10" width="40" height="40" rx="2" stroke="#4F46E5" stroke-width="2"/>
  
  <!-- Y Axis Ticks -->
  <line x1="10" y1="20" x2="14" y2="20" stroke="#4F46E5" stroke-width="2" stroke-linecap="round"/>
  <line x1="10" y1="30" x2="14" y2="30" stroke="#4F46E5" stroke-width="2" stroke-linecap="round"/>
  <line x1="10" y1="40" x2="14" y2="40" stroke="#4F46E5" stroke-width="2" stroke-linecap="round"/>
  
  <!-- X Axis Ticks -->
  <line x1="20" y1="50" x2="20" y2="46" stroke="#4F46E5" stroke-width="2" stroke-linecap="round"/>
  <line x1="30" y1="50" x2="30" y2="46" stroke="#4F46E5" stroke-width="2" stroke-linecap="round"/>
  <line x1="40" y1="50" x2="40" y2="46" stroke="#4F46E5" stroke-width="2" stroke-linecap="round"/>
  
  <!-- Line Graph -->
  <path d="M15 35L25 30L35 20L45 25" stroke="#4F46E5" stroke-width="2" stroke-linecap="round" stroke-linejoin="round"/>
  
  <!-- Line Points -->
  <circle cx="15" cy="35" r="3" fill="#4F46E5"/>
  <circle cx="25" cy="30" r="3" fill="#4F46E5"/>
  <circle cx="35" cy="20" r="3" fill="#4F46E5"/>
  <circle cx="45" cy="25" r="3" fill="#4F46E5"/>
  
  <!-- Bar Chart Elements (Semi-transparent) -->
  <rect x="17" y="38" width="6" height="8" rx="1" fill="#4F46E5" fill-opacity="0.3"/>
  <rect x="27" y="33" width="6" height="13" rx="1" fill="#4F46E5" fill-opacity="0.3"/>
  <rect x="37" y="28" width="6" height="18" rx="1" fill="#4F46E5" fill-opacity="0.3"/>
</svg>