<?xml version="1.0" encoding="UTF-8"?>
<svg width="60" height="60" viewBox="0 0 60 60" fill="none" xmlns="http://www.w3.org/2000/svg">
  <rect width="60" height="60" rx="12" fill="#EEF2FF"/>
  
  <!-- Database -->
  <path d="M16 20C16 17.7909 19.134 16 23 16C26.866 16 30 17.7909 30 20V40C30 42.2091 26.866 44 23 44C19.134 44 16 42.2091 16 40V20Z" stroke="#4F46E5" stroke-width="2"/>
  <path d="M16 20C16 22.2091 19.134 24 23 24C26.866 24 30 22.2091 30 20" stroke="#4F46E5" stroke-width="2"/>
  <path d="M16 30C16 32.2091 19.134 34 23 34C26.866 34 30 32.2091 30 30" stroke="#4F46E5" stroke-width="2"/>
  
  <!-- Connected Nodes -->
  <rect x="36" y="16" width="8" height="8" rx="2" stroke="#4F46E5" stroke-width="2"/>
  <rect x="36" y="36" width="8" height="8" rx="2" stroke="#4F46E5" stroke-width="2"/>
  <rect x="46" y="26" width="8" height="8" rx="2" stroke="#4F46E5" stroke-width="2"/>
  
  <!-- Connection Lines -->
  <path d="M30 25L36 20" stroke="#4F46E5" stroke-width="2"/>
  <path d="M30 35L36 40" stroke="#4F46E5" stroke-width="2"/>
  <path d="M44 20L46 26" stroke="#4F46E5" stroke-width="2"/>
  <path d="M44 40L46 34" stroke="#4F46E5" stroke-width="2"/>
</svg>