<?xml version="1.0" encoding="UTF-8"?>
<svg width="60" height="60" viewBox="0 0 60 60" fill="none" xmlns="http://www.w3.org/2000/svg">
  <rect width="60" height="60" rx="12" fill="#EEF2FF"/>
  <path d="M45 15H15C13.3431 15 12 16.3431 12 18V42C12 43.6569 13.3431 45 15 45H45C46.6569 45 48 43.6569 48 42V18C48 16.3431 46.6569 15 45 15Z" stroke="#4F46E5" stroke-width="2" stroke-linecap="round" stroke-linejoin="round"/>
  <path d="M12 24H48" stroke="#4F46E5" stroke-width="2" stroke-linecap="round" stroke-linejoin="round"/>
  <circle cx="18" cy="19.5" r="1.5" fill="#4F46E5"/>
  <circle cx="24" cy="19.5" r="1.5" fill="#4F46E5"/>
  <circle cx="30" cy="19.5" r="1.5" fill="#4F46E5"/>
  <path d="M22 34L16 30L22 26" stroke="#4F46E5" stroke-width="2" stroke-linecap="round" stroke-linejoin="round"/>
  <path d="M38 34L44 30L38 26" stroke="#4F46E5" stroke-width="2" stroke-linecap="round" stroke-linejoin="round"/>
  <line x1="34" y1="26" x2="26" y2="34" stroke="#4F46E5" stroke-width="2" stroke-linecap="round"/>
</svg>